<svg version="1.1" id="Layer_1" xmlns="http://www.w3.org/2000/svg" xmlns:xlink="http://www.w3.org/1999/xlink" x="0px" y="0px"
	 width="100%" viewBox="0 0 1024 1024" enable-background="new 0 0 1024 1024" xml:space="preserve">
<path fill="#000000" opacity="1.000000" stroke="none" 
	d="
M242.522980,595.486877 
	C216.268997,570.134033 190.378799,544.913513 164.231064,519.963013 
	C148.369370,504.827576 139.485062,486.357391 138.990326,464.695923 
	C138.275925,433.417725 155.054779,404.966827 190.767227,397.915131 
	C217.486237,392.639282 239.692795,401.045746 255.318573,424.268616 
	C255.769669,424.938995 256.364960,425.512329 256.839722,426.068481 
	C259.278320,426.132355 259.956787,424.105133 261.203308,422.902191 
	C272.387939,412.108490 284.787598,403.220825 300.211548,399.743378 
	C333.071106,392.334961 365.390900,412.451630 374.229797,445.541260 
	C381.548523,472.940033 370.707642,496.321777 344.216949,510.962036 
	C329.185394,519.269409 312.949249,521.839539 296.118225,521.965881 
	C284.624939,522.052124 273.130463,521.973389 261.636658,522.010254 
	C259.162445,522.018188 256.328888,521.663635 256.357574,525.520508 
	C256.524139,547.922607 281.209381,570.753723 303.085083,561.686707 
	C311.873047,558.044312 319.453644,552.123962 327.411285,546.972107 
	C337.145538,540.669983 334.448792,540.738464 343.000824,548.158447 
	C346.993835,551.622925 350.917450,555.167297 355.020569,558.806824 
	C352.515350,562.803772 348.994232,565.110657 346.094452,568.000610 
	C330.768036,583.275085 312.722656,595.011292 294.830261,606.870178 
	C282.902771,614.775635 264.376678,613.380249 253.017807,604.508545 
	C249.478836,601.744446 246.184540,598.666992 242.522980,595.486877 
M289.650574,450.225098 
	C271.974396,456.983002 267.064453,473.017181 260.742065,488.070587 
	C263.314423,489.840576 265.197601,489.693665 266.999451,489.609467 
	C272.305359,489.361450 277.629761,489.206055 282.902710,488.617981 
	C294.923431,487.277435 307.089355,486.902100 318.737671,483.012665 
	C327.132446,480.209625 334.008301,471.820984 333.593475,464.370880 
	C332.822021,450.516388 319.887390,441.021332 306.211334,444.096069 
	C300.638489,445.348969 295.407928,447.381927 289.650574,450.225098 
z"/>
<path fill="#000000" opacity="1.000000" stroke="none" 
	d="
M433.583130,513.000000 
	C433.596863,485.679321 433.727936,458.857788 433.523010,432.038849 
	C433.484192,426.959839 435.077026,425.494690 440.089386,425.540131 
	C464.908997,425.765137 489.731720,425.635712 514.553345,425.653290 
	C520.956482,425.657837 521.267334,425.996643 521.310852,432.482056 
	C521.334290,435.980225 521.336426,439.479004 521.299866,442.977020 
	C521.237427,448.955505 520.864136,449.320618 514.588074,449.329132 
	C497.929260,449.351776 481.268768,449.482208 464.612762,449.270111 
	C459.964050,449.210907 458.013672,450.423309 458.252411,455.415894 
	C458.625977,463.227692 458.540253,471.076599 458.281464,478.897614 
	C458.139526,483.187317 459.480499,484.773773 463.953918,484.706696 
	C478.943329,484.481964 493.939606,484.740875 508.930450,484.569916 
	C512.978577,484.523773 514.705811,485.727814 514.397095,489.950592 
	C514.106445,493.927216 514.170654,497.951599 514.391357,501.937653 
	C514.610657,505.898071 512.871704,507.221710 509.083954,507.194580 
	C494.591614,507.090729 480.098022,507.139435 465.604980,507.168457 
	C458.360046,507.182953 458.353699,507.219360 458.352600,514.341858 
	C458.351318,522.338074 458.558655,530.340942 458.290283,538.327881 
	C458.147400,542.579956 459.786407,543.751404 463.818573,543.716125 
	C481.308929,543.563232 498.801514,543.645508 516.293213,543.669739 
	C522.725403,543.678650 523.186340,544.140991 523.239502,550.395081 
	C523.270569,554.059631 523.221252,557.724731 523.224243,561.389587 
	C523.226807,564.583435 521.903442,566.369080 518.456482,566.364929 
	C491.469391,566.332397 464.482147,566.319885 437.495148,566.377075 
	C433.867157,566.384766 433.598358,564.249329 433.603577,561.477112 
	C433.633575,545.484863 433.597595,529.492371 433.583130,513.000000 
z"/>
<path fill="#000000" opacity="1.000000" stroke="none" 
	d="
M852.000122,501.655212 
	C854.657776,501.650940 856.854370,501.412445 858.982056,501.694397 
	C863.785522,502.331024 865.115723,500.214966 864.703186,495.713226 
	C863.974731,487.764709 859.375671,483.071198 851.339844,482.210266 
	C840.717407,481.072205 830.807800,483.888702 821.260132,487.885406 
	C816.301208,489.961243 813.852295,488.908630 812.362915,484.002228 
	C811.739929,481.949982 810.650024,480.035400 809.730164,478.078125 
	C806.829590,471.906830 806.832214,471.537903 812.760254,468.509735 
	C829.242676,460.090240 846.579956,457.682861 864.484253,462.585815 
	C879.131714,466.596893 888.637756,479.559937 889.356201,494.706543 
	C890.122009,510.851440 890.101929,526.985352 889.564880,543.135254 
	C889.365967,549.114929 889.736023,555.116455 889.933105,561.105225 
	C890.055298,564.818665 888.665344,566.679321 884.664734,566.407593 
	C881.182983,566.171021 877.669617,566.449585 874.175110,566.341309 
	C864.374146,566.037415 865.736328,568.008789 864.120911,557.921875 
	C854.805054,567.055481 843.496643,568.976990 831.315002,568.353027 
	C815.201477,567.527649 802.859985,558.746460 800.283691,544.442078 
	C796.702942,524.561279 804.698853,506.851044 828.169739,503.609589 
	C835.916626,502.539703 843.676270,501.684601 852.000122,501.655212 
M834.856995,545.752136 
	C852.738464,549.725769 866.984558,539.324097 864.703857,520.333252 
	C860.377441,520.333252 856.087158,520.219177 851.805359,520.360840 
	C845.853394,520.557800 839.882507,519.761658 833.947449,521.179810 
	C825.906006,523.101257 822.673645,528.246582 824.779602,536.221313 
	C826.083801,541.160217 829.055115,544.367615 834.856995,545.752136 
z"/>
<path fill="#000000" opacity="1.000000" stroke="none" 
	d="
M581.674927,525.948608 
	C578.976318,509.125519 580.545166,493.449768 591.103943,479.990265 
	C603.300476,464.443085 619.663879,457.395508 639.125977,461.242340 
	C660.089355,465.385956 670.978699,480.428009 676.149902,500.166962 
	C677.492981,505.293610 678.317322,510.598633 678.191406,515.936462 
	C678.044495,522.166687 676.959778,523.159180 670.796570,523.169434 
	C651.304565,523.201782 631.812500,523.191284 612.320496,523.197205 
	C610.352417,523.197815 608.384338,523.197327 606.451721,523.197327 
	C606.046753,535.036377 616.803223,546.457825 628.786011,547.681030 
	C639.974548,548.823242 649.190735,545.287415 655.934326,536.243347 
	C658.672058,532.571533 660.991333,532.096985 664.394470,535.270447 
	C667.308899,537.988159 670.593201,540.311279 673.733887,542.783508 
	C676.118530,544.660645 676.691284,546.617981 674.376770,549.032715 
	C662.330200,561.600891 648.180542,569.103638 630.225586,568.702515 
	C603.169861,568.098145 585.944519,550.786438 581.674927,525.948608 
M645.361023,488.139832 
	C638.673645,481.558563 630.835327,479.477081 622.060974,482.951355 
	C613.207886,486.456726 608.372070,493.389526 606.486145,502.399994 
	C607.092102,502.931732 607.335510,503.333008 607.582275,503.334991 
	C621.703064,503.449127 635.823975,503.552124 649.945129,503.594574 
	C652.584045,503.602478 652.895081,502.062042 652.132751,499.875702 
	C650.697205,495.758331 648.898499,491.862396 645.361023,488.139832 
z"/>
<path fill="#000000" opacity="1.000000" stroke="none" 
	d="
M747.888672,459.917297 
	C753.241150,460.718811 758.225769,460.932281 762.975281,462.733185 
	C776.308899,467.789001 783.008179,477.979584 784.200012,491.565979 
	C786.166626,513.985657 784.769714,536.494202 784.898743,558.963623 
	C784.938416,565.861816 784.220276,566.300781 777.433350,566.322327 
	C773.436218,566.335022 769.426758,566.123169 765.445129,566.370911 
	C761.264221,566.631042 759.840332,564.819214 759.874390,560.816406 
	C759.987915,547.493408 759.930908,534.168701 759.904785,520.844788 
	C759.893311,515.016235 759.897034,509.184845 759.721191,503.359955 
	C759.339722,490.728149 752.268005,482.900909 740.913269,482.381104 
	C728.767883,481.825043 719.770081,489.790436 718.356873,502.303955 
	C716.257019,520.897888 717.789307,539.554749 717.376831,558.178162 
	C717.198853,566.213989 717.336975,566.217407 709.314697,566.252930 
	C705.650635,566.269165 701.970764,566.075500 698.326538,566.351990 
	C693.883545,566.689087 692.573792,564.783447 692.601746,560.520691 
	C692.745911,538.536987 692.664124,516.551880 692.662781,494.567261 
	C692.662231,485.573547 692.854553,476.574249 692.587769,467.588531 
	C692.454529,463.102417 694.341309,461.659149 698.481018,461.799072 
	C702.472351,461.933960 706.489197,461.976685 710.466919,461.682495 
	C715.385620,461.318695 717.698547,463.255951 717.354736,468.248962 
	C717.300842,469.031921 717.249512,469.942749 718.563599,470.743652 
	C726.460632,462.973999 736.580200,460.406647 747.888672,459.917297 
z"/>
<path fill="#000000" opacity="1.000000" stroke="none" 
	d="
M546.162598,566.359619 
	C542.035217,566.689209 540.641602,564.989807 540.646118,561.383667 
	C540.701538,517.265808 540.704041,473.147797 540.649658,429.029907 
	C540.644958,425.196747 542.215149,423.565948 546.025879,423.673523 
	C550.517212,423.800262 555.031738,423.935364 559.505493,423.625000 
	C564.259216,423.295197 565.442261,425.388550 565.419983,429.807617 
	C565.277405,458.108978 565.349365,486.411469 565.349487,514.713562 
	C565.349548,530.030029 565.229614,545.347900 565.419800,560.661987 
	C565.473938,565.021362 563.981018,566.686646 559.626038,566.411865 
	C555.314819,566.139954 550.972717,566.358215 546.162598,566.359619 
z"/>
</svg>