<svg version="1.1" id="Layer_1" xmlns="http://www.w3.org/2000/svg" xmlns:xlink="http://www.w3.org/1999/xlink" x="0px" y="0px"
	 width="100%" viewBox="0 0 1024 1024" enable-background="new 0 0 1024 1024" xml:space="preserve">
<path fill="#202020" opacity="1.000000" stroke="none" 
	d="
M545.000000,1025.000000 
	C363.333344,1025.000000 182.166672,1025.000000 1.000000,1025.000000 
	C1.000000,683.666687 1.000000,342.333344 1.000000,1.000000 
	C342.333344,1.000000 683.666687,1.000000 1025.000000,1.000000 
	C1025.000000,342.333344 1025.000000,683.666687 1025.000000,1025.000000 
	C865.166687,1025.000000 705.333313,1025.000000 545.000000,1025.000000 
M491.393982,494.573242 
	C489.763153,494.381073 488.132690,494.025574 486.501434,494.022034 
	C470.376129,493.987061 454.250732,494.010437 437.977020,493.088135 
	C437.988495,480.737915 437.999969,468.387695 438.943207,455.943817 
	C459.894287,455.943817 480.845337,455.943817 501.983276,455.943817 
	C501.983276,448.626099 501.983276,441.558868 501.983276,434.272034 
	C473.075226,434.272034 444.467957,434.269989 415.860718,434.289429 
	C415.382782,434.289764 414.905029,434.551056 413.832977,435.378601 
	C413.555084,436.983246 413.036041,438.587677 413.034454,440.192596 
	C412.990356,484.461182 412.982025,528.729858 413.064911,572.998291 
	C413.067963,574.643127 414.045410,576.286194 414.852112,577.901367 
	C415.060516,577.998779 415.132172,578.157776 415.587402,579.059448 
	C417.165253,579.369507 418.742554,579.946472 420.321075,579.949890 
	C445.866333,580.005310 471.411896,580.019775 496.956909,579.920410 
	C498.811310,579.913208 500.662048,578.958435 502.296417,577.741394 
	C502.296417,570.935364 502.296417,564.129333 502.296417,556.908325 
	C480.621338,556.908325 459.333649,556.908325 438.030396,556.978638 
	C438.030396,556.978638 438.097046,556.951294 437.950226,556.030396 
	C438.006775,543.345276 438.063354,530.660095 438.477417,517.713989 
	C438.687195,517.502869 438.861115,517.265503 439.917786,516.800598 
	C456.528534,516.793579 473.139557,516.828308 489.749420,516.702881 
	C491.128754,516.692505 492.499878,515.598877 494.000244,514.078918 
	C493.958252,508.383118 493.916229,502.687286 493.962006,496.381500 
	C493.320953,495.957703 492.679901,495.533905 491.393982,494.573242 
M878.473938,504.435699 
	C878.067932,502.300568 877.661926,500.165466 876.992676,497.277405 
	C874.251953,483.273376 865.700989,474.495178 852.215271,470.695862 
	C840.060486,467.271454 827.803345,467.561249 815.845032,471.840271 
	C802.362183,476.664764 792.765808,490.002686 793.296875,502.856201 
	C800.730225,502.856201 808.165344,502.856201 815.520203,502.856201 
	C818.808716,491.436432 826.842285,485.970154 838.000549,487.346802 
	C848.561584,488.649750 854.584167,495.780548 854.877441,507.354004 
	C854.936523,509.685913 854.934753,512.019348 854.029236,514.505371 
	C845.687256,514.674255 837.345337,514.843140 828.097351,514.869202 
	C821.101929,516.122437 813.884888,516.674133 807.164551,518.797791 
	C797.736328,521.777100 791.474365,528.493530 788.967712,538.329468 
	C783.473267,559.889526 794.128296,576.202209 816.237976,579.373352 
	C831.552673,581.569885 845.483032,579.066467 855.278564,565.388184 
	C855.527405,565.040771 856.382812,565.127563 856.857239,565.676819 
	C856.899719,566.119263 856.942200,566.561707 856.822144,567.899292 
	C856.867676,570.930481 856.913208,573.961609 856.932922,577.643616 
	C857.296021,577.794067 857.659058,577.944458 858.675537,578.235962 
	C859.113037,578.174377 859.550537,578.112793 860.914856,578.206970 
	C866.380615,578.206970 871.846375,578.206970 877.813660,578.206970 
	C877.813660,575.897095 877.809204,573.938110 877.814392,571.979065 
	C877.873352,549.653259 877.933838,527.327515 878.473938,504.435699 
M680.213440,471.345764 
	C679.812195,472.868195 679.063965,474.389923 679.060791,475.913208 
	C678.992920,508.372864 678.983826,540.832764 679.083130,573.292236 
	C679.087952,574.878235 680.184509,576.460938 681.495300,578.282471 
	C681.993042,578.205444 682.490784,578.128479 683.736938,578.207703 
	C684.495667,578.153381 685.254333,578.099121 686.663635,578.223328 
	C687.105591,578.164795 687.547546,578.106201 688.737549,578.208130 
	C689.496643,578.155762 690.255798,578.103394 691.748535,578.230408 
	C692.495850,578.167297 693.243103,578.104187 694.870483,578.199341 
	C697.251465,578.147583 699.632446,578.095825 702.803589,577.659363 
	C702.867249,558.181702 702.791138,538.701843 703.089294,519.227783 
	C703.167419,514.132019 703.757263,508.853363 705.250366,504.009613 
	C708.417725,493.734314 717.404236,488.817047 729.836182,489.693359 
	C740.402161,490.438110 746.775940,496.046448 748.443237,507.087738 
	C749.279541,512.625916 748.866089,518.352905 748.563354,524.466125 
	C748.717590,525.646790 748.871887,526.827515 749.235046,528.876099 
	C749.159485,531.249939 749.083923,533.623718 748.644653,536.332581 
	C748.765198,536.888977 748.885742,537.445374 749.212036,538.919250 
	C749.212036,551.948059 749.212036,564.976929 749.212036,577.970032 
	C757.351624,577.970032 764.785828,577.970032 772.896912,577.620361 
	C773.259583,576.412354 773.934998,575.205200 773.938477,573.996155 
	C774.002930,551.746582 774.018982,529.496643 773.913086,507.247406 
	C773.906372,505.838440 772.819397,504.434601 772.018066,502.201874 
	C770.677185,489.238983 765.932495,477.802277 753.403931,472.498932 
	C734.431946,464.468109 717.289490,468.249908 702.685425,484.803497 
	C702.685425,479.440735 702.685425,475.357544 702.685425,471.112091 
	C695.553711,471.112091 688.773071,471.112091 681.454224,470.976715 
	C681.269226,470.976501 681.084290,470.976257 680.213440,471.345764 
M521.818176,435.382812 
	C521.544373,436.987701 521.033020,438.592377 521.031494,440.197540 
	C520.988647,484.432526 520.982178,528.667542 521.058105,572.902466 
	C521.060974,574.574280 521.946289,576.244507 523.266052,578.197205 
	C530.386414,578.197205 537.506714,578.197205 544.665833,578.197205 
	C544.665833,530.085876 544.665833,482.262634 544.665833,434.709076 
	C536.993469,434.709076 529.706848,434.709076 521.818176,435.382812 
M284.933411,569.672668 
	C278.025391,569.875000 270.803009,571.479492 264.268738,570.014587 
	C245.293640,565.760681 237.440933,547.381714 237.390152,529.769470 
	C237.387421,528.819031 239.623505,527.010864 240.763763,527.052979 
	C246.242645,527.255493 251.695297,528.063782 257.171448,528.462708 
	C279.351929,530.078369 301.020111,528.409729 321.817535,519.486267 
	C359.536041,503.302582 364.605774,460.190247 349.362213,434.570282 
	C326.207520,395.654022 274.054565,395.183105 250.802841,433.905884 
	C248.047348,438.494812 246.245300,443.656250 243.713669,449.179871 
	C243.016785,447.326355 242.567688,446.125397 242.113968,444.926208 
	C233.508408,422.181061 217.388901,408.457092 193.091812,405.688385 
	C170.952805,403.165558 153.950638,412.786957 141.273071,430.437073 
	C124.896896,453.236572 126.405357,486.195312 144.543091,504.842072 
	C175.096817,536.253296 206.017288,567.313904 236.207336,599.069702 
	C248.645248,612.152649 262.920929,614.117920 278.055847,607.575439 
	C289.517212,602.621033 300.122650,595.290771 310.316742,587.921814 
	C318.993225,581.649963 326.539062,573.813965 334.393890,566.839844 
	C328.351715,560.931213 323.053894,555.750549 318.528687,551.325378 
	C307.717102,557.275085 296.707367,563.333862 284.933411,569.672668 
M613.500000,531.020264 
	C629.582092,531.020264 645.664185,531.020264 661.854187,531.020264 
	C661.854187,525.867615 662.124146,521.373291 661.802979,516.921631 
	C660.880981,504.143372 656.868774,492.500580 648.239197,482.766724 
	C635.461792,468.354156 618.849609,467.158722 601.405518,469.675812 
	C591.355652,471.125916 582.868958,476.060608 576.077759,483.590454 
	C556.206421,505.623322 557.792725,547.143433 579.189087,567.677429 
	C593.604980,581.512268 620.156128,584.367188 639.488403,574.106079 
	C648.385559,569.383606 655.060669,562.527649 659.531250,553.068115 
	C652.796753,549.562622 646.359924,546.212036 639.933289,542.866821 
	C631.134277,558.495117 620.747803,563.615601 606.551941,559.541870 
	C594.747925,556.154480 586.009521,543.802673 586.567627,531.022705 
	C595.202942,531.022705 603.851501,531.022705 613.500000,531.020264 
z"/>
<path fill="#636464" opacity="1.000000" stroke="none" 
	d="
M285.315521,569.532654 
	C296.707367,563.333862 307.717102,557.275085 318.528687,551.325378 
	C323.053894,555.750549 328.351715,560.931213 334.393890,566.839844 
	C326.539062,573.813965 318.993225,581.649963 310.316742,587.921814 
	C300.122650,595.290771 289.517212,602.621033 278.055847,607.575439 
	C262.920929,614.117920 248.645248,612.152649 236.207336,599.069702 
	C206.017288,567.313904 175.096817,536.253296 144.543091,504.842072 
	C126.405357,486.195312 124.896896,453.236572 141.273071,430.437073 
	C153.950638,412.786957 170.952805,403.165558 193.091812,405.688385 
	C217.388901,408.457092 233.508408,422.181061 242.113968,444.926208 
	C242.567688,446.125397 243.016785,447.326355 243.713669,449.179871 
	C246.245300,443.656250 248.047348,438.494812 250.802841,433.905884 
	C274.054565,395.183105 326.207520,395.654022 349.362213,434.570282 
	C364.605774,460.190247 359.536041,503.302582 321.817535,519.486267 
	C301.020111,528.409729 279.351929,530.078369 257.171448,528.462708 
	C251.695297,528.063782 246.242645,527.255493 240.763763,527.052979 
	C239.623505,527.010864 237.387421,528.819031 237.390152,529.769470 
	C237.440933,547.381714 245.293640,565.760681 264.268738,570.014587 
	C270.803009,571.479492 278.025391,569.875000 285.315521,569.532654 
M296.262878,452.097382 
	C270.670959,452.026398 242.977478,475.345734 242.623260,497.700867 
	C264.424347,498.710876 285.885498,497.486511 306.214325,488.551422 
	C309.149414,487.261414 311.813690,484.868378 313.996460,482.440277 
	C322.237152,473.273285 319.165009,459.434570 307.793732,454.667938 
	C304.477539,453.277863 300.719574,452.941772 296.262878,452.097382 
z"/>
<path fill="#C8C8C7" opacity="1.000000" stroke="none" 
	d="
M613.000000,531.021484 
	C603.851501,531.022705 595.202942,531.022705 586.567627,531.022705 
	C586.009521,543.802673 594.747925,556.154480 606.551941,559.541870 
	C620.747803,563.615601 631.134277,558.495117 639.933289,542.866821 
	C646.359924,546.212036 652.796753,549.562622 659.531250,553.068115 
	C655.060669,562.527649 648.385559,569.383606 639.488403,574.106079 
	C620.156128,584.367188 593.604980,581.512268 579.189087,567.677429 
	C557.792725,547.143433 556.206421,505.623322 576.077759,483.590454 
	C582.868958,476.060608 591.355652,471.125916 601.405518,469.675812 
	C618.849609,467.158722 635.461792,468.354156 648.239197,482.766724 
	C656.868774,492.500580 660.880981,504.143372 661.802979,516.921631 
	C662.124146,521.373291 661.854187,525.867615 661.854187,531.020264 
	C645.664185,531.020264 629.582092,531.020264 613.000000,531.021484 
M592.809387,498.377747 
	C590.576477,502.912109 588.343506,507.446472 585.763184,512.686279 
	C604.006775,512.686279 620.911011,512.686279 637.818909,512.686279 
	C637.435791,496.138733 626.133667,486.147034 610.169250,488.186768 
	C603.239502,489.072144 597.624573,492.377472 592.809387,498.377747 
z"/>
<path fill="#C7C7C6" opacity="1.000000" stroke="none" 
	d="
M493.874207,496.991486 
	C493.916229,502.687286 493.958252,508.383118 493.476929,514.536011 
	C474.201050,514.993164 455.448456,514.993164 436.123474,514.993164 
	C436.123474,528.308716 436.095367,541.648865 436.207367,554.987854 
	C436.212891,555.647583 437.439178,556.297058 438.097046,556.951294 
	C438.097046,556.951294 438.030396,556.978638 438.128601,557.283569 
	C438.547638,557.954895 438.825012,558.374146 439.196045,558.679688 
	C443.168976,561.951904 447.315613,558.963928 451.378448,558.977295 
	C465.200928,559.022644 479.023651,558.995056 492.846283,558.997009 
	C500.719543,558.998108 500.699219,558.998718 500.336456,567.010864 
	C500.292511,567.981323 500.627228,568.966003 500.758698,569.947876 
	C501.422485,574.906372 499.989319,576.880371 494.910553,576.917053 
	C477.859283,577.040222 460.806580,576.963867 444.211639,576.963867 
	C443.311646,574.877625 442.724945,573.517517 442.138245,572.157410 
	C440.961212,573.054626 439.824432,574.012695 438.592682,574.827148 
	C437.803619,575.348877 436.888336,575.972778 436.005798,576.011780 
	C430.917664,576.236816 425.820953,576.431580 420.730133,576.373535 
	C417.362823,576.335205 416.142273,573.826172 416.145264,570.948425 
	C416.149384,566.978882 416.819153,563.007080 416.776154,559.040894 
	C416.620178,544.659790 416.176453,530.281433 416.072998,515.900391 
	C416.032471,510.271210 416.828796,504.638336 416.846008,499.005951 
	C416.873291,490.052765 416.420105,481.098022 416.456421,472.145050 
	C416.478302,466.742249 417.331879,461.338684 417.276886,455.940887 
	C417.225098,450.858612 416.279755,445.787445 416.174377,440.702118 
	C416.150757,439.561768 417.965820,437.392334 418.970032,437.371033 
	C433.093475,437.070892 447.242462,436.617401 461.340027,437.234802 
	C465.911835,437.435028 470.335724,437.304657 474.858337,437.060730 
	C480.836334,436.738342 486.853149,437.175873 492.837524,436.919281 
	C497.652740,436.712830 501.352600,436.991486 499.539764,443.456818 
	C499.261017,444.450989 499.942108,445.718170 500.192566,446.856201 
	C501.519470,452.884888 500.672516,453.984528 494.490417,453.991882 
	C477.503601,454.012115 460.516205,453.935974 443.530701,454.087494 
	C441.685303,454.103973 439.850922,455.357666 438.011444,456.037476 
	C437.999969,468.387695 437.988495,480.737915 437.986084,493.821075 
	C437.987091,494.737915 437.978973,494.921844 438.143677,495.456726 
	C440.009613,496.210327 441.701111,496.954773 443.396118,496.962799 
	C460.221832,497.042053 477.048126,496.999542 493.874207,496.991486 
z"/>
<path fill="#C7C7C6" opacity="1.000000" stroke="none" 
	d="
M856.958801,576.992798 
	C856.913208,573.961609 856.867676,570.930481 857.088074,567.285034 
	C857.221130,566.117859 857.088196,565.564880 856.955322,565.011902 
	C856.382812,565.127563 855.527405,565.040771 855.278564,565.388184 
	C845.483032,579.066467 831.552673,581.569885 816.237976,579.373352 
	C794.128296,576.202209 783.473267,559.889526 788.967712,538.329468 
	C791.474365,528.493530 797.736328,521.777100 807.164551,518.797791 
	C813.884888,516.674133 821.101929,516.122437 828.880493,515.191650 
	C837.299316,515.651855 844.934937,515.837219 852.570984,515.856628 
	C853.366394,515.858643 854.164307,514.877197 854.961060,514.352051 
	C854.934753,512.019348 854.936523,509.685913 854.877441,507.354004 
	C854.584167,495.780548 848.561584,488.649750 838.000549,487.346802 
	C826.842285,485.970154 818.808716,491.436432 815.520203,502.856201 
	C808.165344,502.856201 800.730225,502.856201 793.296875,502.856201 
	C792.765808,490.002686 802.362183,476.664764 815.845032,471.840271 
	C827.803345,467.561249 840.060486,467.271454 852.215271,470.695862 
	C865.700989,474.495178 874.251953,483.273376 877.074341,497.899750 
	C877.104858,498.681335 877.053711,498.840576 876.748291,499.328064 
	C876.327026,501.463715 876.017517,503.270874 876.014709,505.078491 
	C875.980408,527.241028 875.910156,549.404114 876.063599,571.565613 
	C876.091675,575.620667 874.945801,577.246460 870.705994,577.080750 
	C867.151428,576.941772 863.562012,577.693665 859.988037,578.051208 
	C859.550537,578.112793 859.113037,578.174377 858.214722,577.942871 
	C857.488953,577.430725 857.223877,577.211731 856.958801,576.992798 
M823.653137,531.837524 
	C814.531372,534.103394 810.507263,538.931396 810.664368,547.421082 
	C810.817566,555.703613 815.834229,561.434753 824.482788,563.207764 
	C843.157715,567.036133 858.230957,550.914734 854.370972,531.719666 
	C844.357605,531.719666 834.427185,531.719666 823.653137,531.837524 
z"/>
<path fill="#C7C7C6" opacity="1.000000" stroke="none" 
	d="
M772.219971,577.970032 
	C764.785828,577.970032 757.351624,577.970032 749.212036,577.970032 
	C749.212036,564.976929 749.212036,551.948059 749.182373,538.129211 
	C749.104553,536.891968 749.056458,536.444763 749.008362,535.997559 
	C749.083923,533.623718 749.159485,531.249939 749.207825,528.045044 
	C749.126343,526.140869 749.072083,525.067688 749.017822,523.994507 
	C748.866089,518.352905 749.279541,512.625916 748.443237,507.087738 
	C746.775940,496.046448 740.402161,490.438110 729.836182,489.693359 
	C717.404236,488.817047 708.417725,493.734314 705.250366,504.009613 
	C703.757263,508.853363 703.167419,514.132019 703.089294,519.227783 
	C702.791138,538.701843 702.867249,558.181702 702.114563,577.598938 
	C698.947144,577.705994 696.468811,577.873474 693.990417,578.041016 
	C693.243103,578.104187 692.495850,578.167297 691.175415,577.920654 
	C689.731323,577.756531 688.860413,577.902100 687.989502,578.047607 
	C687.547546,578.106201 687.105591,578.164795 686.131104,577.915649 
	C684.728516,577.755859 683.858521,577.903625 682.988525,578.051392 
	C682.490784,578.128479 681.993042,578.205444 681.109436,577.820068 
	C680.800476,576.907959 680.877380,576.458313 681.193176,575.752808 
	C681.275269,573.995728 681.118469,572.494507 680.871094,570.666626 
	C680.839417,569.895996 680.898254,569.451904 681.176025,568.801880 
	C681.247131,567.727783 681.099426,566.859558 680.857056,565.571655 
	C680.825867,563.437561 680.889282,561.723145 681.171753,559.803528 
	C681.247314,558.729736 681.103760,557.861267 680.866333,556.600830 
	C680.835510,555.141663 680.898682,554.074463 681.192383,552.771729 
	C681.267578,551.354919 681.112427,550.173523 680.863708,548.534729 
	C680.834229,543.387146 680.898193,538.697021 681.193054,533.771973 
	C681.269714,532.355774 681.115540,531.174438 680.869507,529.536743 
	C680.839844,524.722412 680.902039,520.364502 681.201172,515.749634 
	C681.278442,513.992432 681.118774,512.492126 680.864990,510.599915 
	C680.833984,509.141205 680.897156,508.074341 681.197998,506.750977 
	C681.277100,504.993652 681.118591,503.492737 680.868042,501.665619 
	C680.836792,500.895782 680.897461,500.452209 681.196838,499.752380 
	C681.275208,497.994690 681.114807,496.493195 680.860474,494.624573 
	C680.830322,493.507812 680.894104,492.758179 681.218994,491.684845 
	C681.301331,485.903687 681.122498,480.446167 680.850037,474.663452 
	C680.818298,473.895721 680.880249,473.453156 681.161987,472.833466 
	C681.585388,472.141571 681.788940,471.626831 681.992432,471.112091 
	C688.773071,471.112091 695.553711,471.112091 702.685425,471.112091 
	C702.685425,475.357544 702.685425,479.440735 702.685425,484.803497 
	C717.289490,468.249908 734.431946,464.468109 753.403931,472.498932 
	C765.932495,477.802277 770.677185,489.238983 772.079346,503.079834 
	C772.167114,528.628540 772.193542,553.299316 772.219971,577.970032 
z"/>
<path fill="#C8C8C7" opacity="1.000000" stroke="none" 
	d="
M522.420288,434.709076 
	C529.706848,434.709076 536.993469,434.709076 544.665833,434.709076 
	C544.665833,482.262634 544.665833,530.085876 544.665833,578.197205 
	C537.506714,578.197205 530.386414,578.197205 522.880615,577.594116 
	C522.525696,559.683899 522.593445,542.376709 522.578613,525.069580 
	C522.552673,494.949371 522.475830,464.829254 522.420288,434.709076 
z"/>
<path fill="#D0D0D0" opacity="1.000000" stroke="none" 
	d="
M438.477325,455.990662 
	C439.850922,455.357666 441.685303,454.103973 443.530701,454.087494 
	C460.516205,453.935974 477.503601,454.012115 494.490417,453.991882 
	C500.672516,453.984528 501.519470,452.884888 500.192566,446.856201 
	C499.942108,445.718170 499.261017,444.450989 499.539764,443.456818 
	C501.352600,436.991486 497.652740,436.712830 492.837524,436.919281 
	C486.853149,437.175873 480.836334,436.738342 474.858337,437.060730 
	C470.335724,437.304657 465.911835,437.435028 461.340027,437.234802 
	C447.242462,436.617401 433.093475,437.070892 418.970032,437.371033 
	C417.965820,437.392334 416.150757,439.561768 416.174377,440.702118 
	C416.279755,445.787445 417.225098,450.858612 417.276886,455.940887 
	C417.331879,461.338684 416.478302,466.742249 416.456421,472.145050 
	C416.420105,481.098022 416.873291,490.052765 416.846008,499.005951 
	C416.828796,504.638336 416.032471,510.271210 416.072998,515.900391 
	C416.176453,530.281433 416.620178,544.659790 416.776154,559.040894 
	C416.819153,563.007080 416.149384,566.978882 416.145264,570.948425 
	C416.142273,573.826172 417.362823,576.335205 420.730133,576.373535 
	C425.820953,576.431580 430.917664,576.236816 436.005798,576.011780 
	C436.888336,575.972778 437.803619,575.348877 438.592682,574.827148 
	C439.824432,574.012695 440.961212,573.054626 442.138245,572.157410 
	C442.724945,573.517517 443.311646,574.877625 444.211639,576.963867 
	C460.806580,576.963867 477.859283,577.040222 494.910553,576.917053 
	C499.989319,576.880371 501.422485,574.906372 500.758698,569.947876 
	C500.627228,568.966003 500.292511,567.981323 500.336456,567.010864 
	C500.699219,558.998718 500.719543,558.998108 492.846283,558.997009 
	C479.023651,558.995056 465.200928,559.022644 451.378448,558.977295 
	C447.315613,558.963928 443.168976,561.951904 439.196045,558.679688 
	C438.825012,558.374146 438.547638,557.954895 438.136353,557.248413 
	C459.333649,556.908325 480.621338,556.908325 502.296417,556.908325 
	C502.296417,564.129333 502.296417,570.935364 501.881592,578.070618 
	C472.666870,578.392700 443.866974,578.385559 415.067108,578.378418 
	C415.132172,578.157776 415.060516,577.998779 414.726501,577.450439 
	C414.606049,566.346802 414.628876,555.694092 414.613037,545.041382 
	C414.558380,508.257782 414.490234,471.474182 414.427185,434.690582 
	C414.905029,434.551056 415.382782,434.289764 415.860718,434.289429 
	C444.467957,434.269989 473.075226,434.272034 501.983276,434.272034 
	C501.983276,441.558868 501.983276,448.626099 501.983276,455.943817 
	C480.845337,455.943817 459.894287,455.943817 438.477325,455.990662 
z"/>
<path fill="#0C0C0C" opacity="1.000000" stroke="none" 
	d="
M680.952759,560.008789 
	C680.889282,561.723145 680.825867,563.437561 680.773926,565.944336 
	C680.842590,567.493713 680.899841,568.250793 680.957092,569.007812 
	C680.898254,569.451904 680.839417,569.895996 680.789185,571.079346 
	C680.849976,573.215271 680.902100,574.611938 680.954285,576.008667 
	C680.877380,576.458313 680.800476,576.907959 680.748169,577.701416 
	C680.184509,576.460938 679.087952,574.878235 679.083130,573.292236 
	C678.983826,540.832764 678.992920,508.372864 679.060791,475.913208 
	C679.063965,474.389923 679.812195,472.868195 680.477661,471.497681 
	C680.808655,472.103302 680.875366,472.556946 680.942139,473.010620 
	C680.880249,473.453156 680.818298,473.895721 680.766479,475.125427 
	C680.837036,481.277924 680.897461,486.643219 680.957886,492.008514 
	C680.894104,492.758179 680.830322,493.507812 680.778381,495.037292 
	C680.846191,497.214264 680.902161,498.611450 680.958130,500.008606 
	C680.897461,500.452209 680.836792,500.895782 680.787231,502.078491 
	C680.852356,504.214203 680.906372,505.610809 680.960327,507.007446 
	C680.897156,508.074341 680.833984,509.141205 680.781250,511.012329 
	C680.849243,513.213196 680.906738,514.609863 680.964172,516.006531 
	C680.902039,520.364502 680.839844,524.722412 680.787292,529.933105 
	C680.851990,531.859497 680.907104,532.933167 680.962219,534.006897 
	C680.898193,538.697021 680.834229,543.387146 680.781616,548.931274 
	C680.849243,550.859253 680.905518,551.933289 680.961914,553.007263 
	C680.898682,554.074463 680.835510,555.141663 680.781860,556.973022 
	C680.845215,558.494446 680.898987,559.251587 680.952759,560.008789 
z"/>
<path fill="#D0D0D0" opacity="1.000000" stroke="none" 
	d="
M438.023621,556.490845 
	C437.439178,556.297058 436.212891,555.647583 436.207367,554.987854 
	C436.095367,541.648865 436.123474,528.308716 436.123474,514.993164 
	C455.448456,514.993164 474.201050,514.993164 493.414246,515.000854 
	C492.499878,515.598877 491.128754,516.692505 489.749420,516.702881 
	C473.139557,516.828308 456.528534,516.793579 439.172394,516.883545 
	C438.324646,517.302612 438.222290,517.638794 438.119934,517.974976 
	C438.063354,530.660095 438.006775,543.345276 438.023621,556.490845 
z"/>
<path fill="#D0D0D0" opacity="1.000000" stroke="none" 
	d="
M860.451416,578.129089 
	C863.562012,577.693665 867.151428,576.941772 870.705994,577.080750 
	C874.945801,577.246460 876.091675,575.620667 876.063599,571.565613 
	C875.910156,549.404114 875.980408,527.241028 876.014709,505.078491 
	C876.017517,503.270874 876.327026,501.463715 876.872925,499.688477 
	C877.499207,501.480988 877.746521,503.241333 877.993896,505.001709 
	C877.933838,527.327515 877.873352,549.653259 877.814392,571.979065 
	C877.809204,573.938110 877.813660,575.897095 877.813660,578.206970 
	C871.846375,578.206970 866.380615,578.206970 860.451416,578.129089 
z"/>
<path fill="#0C0C0C" opacity="1.000000" stroke="none" 
	d="
M772.558472,577.795166 
	C772.193542,553.299316 772.167114,528.628540 772.187805,503.493103 
	C772.819397,504.434601 773.906372,505.838440 773.913086,507.247406 
	C774.018982,529.496643 774.002930,551.746582 773.938477,573.996155 
	C773.934998,575.205200 773.259583,576.412354 772.558472,577.795166 
z"/>
<path fill="#0C0C0C" opacity="1.000000" stroke="none" 
	d="
M414.130066,435.034607 
	C414.490234,471.474182 414.558380,508.257782 414.613037,545.041382 
	C414.628876,555.694092 414.606049,566.346802 414.584839,577.464783 
	C414.045410,576.286194 413.067963,574.643127 413.064911,572.998291 
	C412.982025,528.729858 412.990356,484.461182 413.034454,440.192596 
	C413.036041,438.587677 413.555084,436.983246 414.130066,435.034607 
z"/>
<path fill="#0C0C0C" opacity="1.000000" stroke="none" 
	d="
M522.119263,435.045959 
	C522.475830,464.829254 522.552673,494.949371 522.578613,525.069580 
	C522.593445,542.376709 522.525696,559.683899 522.457764,577.453247 
	C521.946289,576.244507 521.060974,574.574280 521.058105,572.902466 
	C520.982178,528.667542 520.988647,484.432526 521.031494,440.197540 
	C521.033020,438.592377 521.544373,436.987701 522.119263,435.045959 
z"/>
<path fill="#D0D0D0" opacity="1.000000" stroke="none" 
	d="
M493.918121,496.686493 
	C477.048126,496.999542 460.221832,497.042053 443.396118,496.962799 
	C441.701111,496.954773 440.009613,496.210327 438.603210,495.566132 
	C456.606262,495.253113 474.322540,495.181610 492.038818,495.110138 
	C492.679901,495.533905 493.320953,495.957703 493.918121,496.686493 
z"/>
<path fill="#0C0C0C" opacity="1.000000" stroke="none" 
	d="
M415.327271,578.718933 
	C443.866974,578.385559 472.666870,578.392700 501.990601,578.421997 
	C500.662048,578.958435 498.811310,579.913208 496.956909,579.920410 
	C471.411896,580.019775 445.866333,580.005310 420.321075,579.949890 
	C418.742554,579.946472 417.165253,579.369507 415.327271,578.718933 
z"/>
<path fill="#0C0C0C" opacity="1.000000" stroke="none" 
	d="
M491.716400,494.841675 
	C474.322540,495.181610 456.606262,495.253113 438.430420,495.215210 
	C437.978973,494.921844 437.987091,494.737915 438.060242,494.285645 
	C454.250732,494.010437 470.376129,493.987061 486.501434,494.022034 
	C488.132690,494.025574 489.763153,494.381073 491.716400,494.841675 
z"/>
<path fill="#D0D0D0" opacity="1.000000" stroke="none" 
	d="
M854.495117,514.428711 
	C854.164307,514.877197 853.366394,515.858643 852.570984,515.856628 
	C844.934937,515.837219 837.299316,515.651855 829.333496,515.263062 
	C837.345337,514.843140 845.687256,514.674255 854.495117,514.428711 
z"/>
<path fill="#0C0C0C" opacity="1.000000" stroke="none" 
	d="
M878.233887,504.718689 
	C877.746521,503.241333 877.499207,501.480988 877.127197,499.360229 
	C877.053711,498.840576 877.104858,498.681335 877.205994,498.276215 
	C877.661926,500.165466 878.067932,502.300568 878.233887,504.718689 
z"/>
<path fill="#D0D0D0" opacity="1.000000" stroke="none" 
	d="
M694.430420,578.120117 
	C696.468811,577.873474 698.947144,577.705994 701.719482,577.791260 
	C699.632446,578.095825 697.251465,578.147583 694.430420,578.120117 
z"/>
<path fill="#0C0C0C" opacity="1.000000" stroke="none" 
	d="
M748.790588,524.230347 
	C749.072083,525.067688 749.126343,526.140869 749.103394,527.611084 
	C748.871887,526.827515 748.717590,525.646790 748.790588,524.230347 
z"/>
<path fill="#D0D0D0" opacity="1.000000" stroke="none" 
	d="
M683.362732,578.129517 
	C683.858521,577.903625 684.728516,577.755859 685.805786,577.826416 
	C685.254333,578.099121 684.495667,578.153381 683.362732,578.129517 
z"/>
<path fill="#D0D0D0" opacity="1.000000" stroke="none" 
	d="
M688.363525,578.127869 
	C688.860413,577.902100 689.731323,577.756531 690.808594,577.830994 
	C690.255798,578.103394 689.496643,578.155762 688.363525,578.127869 
z"/>
<path fill="#D0D0D0" opacity="1.000000" stroke="none" 
	d="
M681.161987,472.833466 
	C680.875366,472.556946 680.808655,472.103302 680.820618,471.312836 
	C681.084290,470.976257 681.269226,470.976501 681.723328,471.044403 
	C681.788940,471.626831 681.585388,472.141571 681.161987,472.833466 
z"/>
<path fill="#D0D0D0" opacity="1.000000" stroke="none" 
	d="
M856.906250,565.344360 
	C857.088196,565.564880 857.221130,566.117859 857.169373,566.837524 
	C856.942200,566.561707 856.899719,566.119263 856.906250,565.344360 
z"/>
<path fill="#0C0C0C" opacity="1.000000" stroke="none" 
	d="
M748.826538,536.165039 
	C749.056458,536.444763 749.104553,536.891968 749.079468,537.670471 
	C748.885742,537.445374 748.765198,536.888977 748.826538,536.165039 
z"/>
<path fill="#0C0C0C" opacity="1.000000" stroke="none" 
	d="
M438.298645,517.844482 
	C438.222290,517.638794 438.324646,517.302612 438.713104,516.984131 
	C438.861115,517.265503 438.687195,517.502869 438.298645,517.844482 
z"/>
<path fill="#D0D0D0" opacity="1.000000" stroke="none" 
	d="
M856.945862,577.318237 
	C857.223877,577.211731 857.488953,577.430725 857.888062,577.872314 
	C857.659058,577.944458 857.296021,577.794067 856.945862,577.318237 
z"/>
<path fill="#202020" opacity="1.000000" stroke="none" 
	d="
M296.713501,452.109985 
	C300.719574,452.941772 304.477539,453.277863 307.793732,454.667938 
	C319.165009,459.434570 322.237152,473.273285 313.996460,482.440277 
	C311.813690,484.868378 309.149414,487.261414 306.214325,488.551422 
	C285.885498,497.486511 264.424347,498.710876 242.623260,497.700867 
	C242.977478,475.345734 270.670959,452.026398 296.713501,452.109985 
z"/>
<path fill="#202020" opacity="1.000000" stroke="none" 
	d="
M593.027344,498.091003 
	C597.624573,492.377472 603.239502,489.072144 610.169250,488.186768 
	C626.133667,486.147034 637.435791,496.138733 637.818909,512.686279 
	C620.911011,512.686279 604.006775,512.686279 585.763184,512.686279 
	C588.343506,507.446472 590.576477,502.912109 593.027344,498.091003 
z"/>
<path fill="#202020" opacity="1.000000" stroke="none" 
	d="
M824.074951,531.778564 
	C834.427185,531.719666 844.357605,531.719666 854.370972,531.719666 
	C858.230957,550.914734 843.157715,567.036133 824.482788,563.207764 
	C815.834229,561.434753 810.817566,555.703613 810.664368,547.421082 
	C810.507263,538.931396 814.531372,534.103394 824.074951,531.778564 
z"/>
<path fill="#D0D0D0" opacity="1.000000" stroke="none" 
	d="
M681.218994,491.684845 
	C680.897461,486.643219 680.837036,481.277924 680.860168,475.450653 
	C681.122498,480.446167 681.301331,485.903687 681.218994,491.684845 
z"/>
<path fill="#D0D0D0" opacity="1.000000" stroke="none" 
	d="
M681.197998,506.750977 
	C680.906372,505.610809 680.852356,504.214203 680.879211,502.404724 
	C681.118591,503.492737 681.277100,504.993652 681.197998,506.750977 
z"/>
<path fill="#D0D0D0" opacity="1.000000" stroke="none" 
	d="
M681.193176,575.752808 
	C680.902100,574.611938 680.849976,573.215271 680.879761,571.405884 
	C681.118469,572.494507 681.275269,573.995728 681.193176,575.752808 
z"/>
<path fill="#D0D0D0" opacity="1.000000" stroke="none" 
	d="
M681.201172,515.749634 
	C680.906738,514.609863 680.849243,513.213196 680.875427,511.404175 
	C681.118774,512.492126 681.278442,513.992432 681.201172,515.749634 
z"/>
<path fill="#D0D0D0" opacity="1.000000" stroke="none" 
	d="
M681.196838,499.752380 
	C680.902161,498.611450 680.846191,497.214264 680.872314,495.404419 
	C681.114807,496.493195 681.275208,497.994690 681.196838,499.752380 
z"/>
<path fill="#D0D0D0" opacity="1.000000" stroke="none" 
	d="
M681.192322,552.771729 
	C680.905518,551.933289 680.849243,550.859253 680.875122,549.388733 
	C681.112427,550.173523 681.267578,551.354919 681.192322,552.771729 
z"/>
<path fill="#D0D0D0" opacity="1.000000" stroke="none" 
	d="
M681.193054,533.771973 
	C680.907104,532.933167 680.851990,531.859497 680.879150,530.389404 
	C681.115540,531.174438 681.269714,532.355774 681.193054,533.771973 
z"/>
<path fill="#D0D0D0" opacity="1.000000" stroke="none" 
	d="
M681.171753,559.803528 
	C680.898987,559.251587 680.845215,558.494446 680.875854,557.364990 
	C681.103760,557.861267 681.247314,558.729736 681.171753,559.803528 
z"/>
<path fill="#D0D0D0" opacity="1.000000" stroke="none" 
	d="
M681.176025,568.801880 
	C680.899841,568.250793 680.842590,567.493713 680.868530,566.364014 
	C681.099426,566.859558 681.247131,567.727783 681.176025,568.801880 
z"/>
</svg>